<svg xmlns="http://www.w3.org/2000/svg" xmlns:xlink="http://www.w3.org/1999/xlink" width="130" zoomAndPan="magnify" viewBox="0 0 224.87999 74.999997" height="40" preserveAspectRatio="xMidYMid meet" version="1.0"><defs><filter x="0%" y="0%" width="100%" height="100%" id="469f8aaf74"><feColorMatrix values="0 0 0 0 1 0 0 0 0 1 0 0 0 0 1 0 0 0 1 0" color-interpolation-filters="sRGB"/></filter><g/><clipPath id="2bee66818b"><path d="M 125 32 L 135.722656 32 L 135.722656 43 L 125 43 Z M 125 32 " clip-rule="nonzero"/></clipPath><clipPath id="4aab717e94"><rect x="0" width="136" y="0" height="54"/></clipPath><mask id="4fa60df9dd"><g filter="url(#469f8aaf74)"><rect x="-22.487999" width="269.855988" fill="#000000" y="-7.5" height="89.999996" fill-opacity="0.69"/></g></mask><clipPath id="41ea676db9"><path d="M 0.847656 1.011719 L 51.820312 1.011719 L 51.820312 43.742188 L 0.847656 43.742188 Z M 0.847656 1.011719 " clip-rule="nonzero"/></clipPath><clipPath id="339870e21d"><rect x="0" width="53" y="0" height="44"/></clipPath><clipPath id="7d39738b3e"><path d="M 26.625 16.246094 L 77.597656 16.246094 L 77.597656 58.976562 L 26.625 58.976562 Z M 26.625 16.246094 " clip-rule="nonzero"/></clipPath><clipPath id="b258bfb618"><path d="M 0.632812 2 L 5 2 L 5 7 L 0.632812 7 Z M 0.632812 2 " clip-rule="nonzero"/></clipPath><clipPath id="1fa1e4be56"><rect x="0" width="115" y="0" height="9"/></clipPath></defs><g transform="matrix(1, 0, 0, 1, 84, 10)"><g clip-path="url(#4aab717e94)"><g fill="#ffffff" fill-opacity="1"><g transform="translate(1.1633, 42.035096)"><g><path d="M 22.921875 -6.109375 L 22.921875 0 L 1.421875 0 L 1.421875 -4.8125 L 12.21875 -17.25 L 1.71875 -17.25 L 1.71875 -23.3125 L 22.484375 -23.3125 L 22.484375 -18.53125 L 11.703125 -6.109375 Z M 22.921875 -6.109375 "/></g></g></g><g fill="#ffffff" fill-opacity="1"><g transform="translate(21.547466, 42.035096)"><g><path d="M 26.4375 -11.609375 C 26.4375 -11.554688 26.394531 -10.882812 26.3125 -9.59375 L 9.375 -9.59375 C 9.71875 -8.382812 10.382812 -7.457031 11.375 -6.8125 C 12.363281 -6.164062 13.601562 -5.84375 15.09375 -5.84375 C 16.207031 -5.84375 17.171875 -6 17.984375 -6.3125 C 18.804688 -6.632812 19.632812 -7.15625 20.46875 -7.875 L 24.765625 -3.390625 C 22.503906 -0.867188 19.191406 0.390625 14.828125 0.390625 C 12.109375 0.390625 9.71875 -0.125 7.65625 -1.15625 C 5.59375 -2.1875 3.992188 -3.617188 2.859375 -5.453125 C 1.722656 -7.296875 1.15625 -9.378906 1.15625 -11.703125 C 1.15625 -13.992188 1.707031 -16.046875 2.8125 -17.859375 C 3.914062 -19.679688 5.441406 -21.109375 7.390625 -22.140625 C 9.335938 -23.171875 11.53125 -23.6875 13.96875 -23.6875 C 16.289062 -23.6875 18.398438 -23.207031 20.296875 -22.25 C 22.191406 -21.289062 23.6875 -19.898438 24.78125 -18.078125 C 25.882812 -16.253906 26.4375 -14.097656 26.4375 -11.609375 Z M 14.015625 -17.890625 C 12.753906 -17.890625 11.703125 -17.53125 10.859375 -16.8125 C 10.015625 -16.09375 9.476562 -15.117188 9.25 -13.890625 L 18.796875 -13.890625 C 18.566406 -15.117188 18.023438 -16.09375 17.171875 -16.8125 C 16.328125 -17.53125 15.273438 -17.890625 14.015625 -17.890625 Z M 14.015625 -17.890625 "/></g></g></g><g fill="#ffffff" fill-opacity="1"><g transform="translate(45.630124, 42.035096)"><g><path d="M 17.796875 -23.6875 C 20.691406 -23.6875 23.019531 -22.828125 24.78125 -21.109375 C 26.550781 -19.390625 27.4375 -16.796875 27.4375 -13.328125 L 27.4375 0 L 19.265625 0 L 19.265625 -12 C 19.265625 -15.175781 17.988281 -16.765625 15.4375 -16.765625 C 14.03125 -16.765625 12.90625 -16.304688 12.0625 -15.390625 C 11.21875 -14.472656 10.796875 -13.097656 10.796875 -11.265625 L 10.796875 0 L 2.625 0 L 2.625 -23.3125 L 10.40625 -23.3125 L 10.40625 -20.765625 C 11.320312 -21.710938 12.410156 -22.4375 13.671875 -22.9375 C 14.929688 -23.4375 16.304688 -23.6875 17.796875 -23.6875 Z M 17.796875 -23.6875 "/></g></g></g><g fill="#ffffff" fill-opacity="1"><g transform="translate(72.035084, 42.035096)"><g><path d="M 2.625 -23.3125 L 10.796875 -23.3125 L 10.796875 0 L 2.625 0 Z M 6.703125 -25.890625 C 5.210938 -25.890625 4.007812 -26.300781 3.09375 -27.125 C 2.175781 -27.957031 1.71875 -28.992188 1.71875 -30.234375 C 1.71875 -31.460938 2.175781 -32.492188 3.09375 -33.328125 C 4.007812 -34.160156 5.210938 -34.578125 6.703125 -34.578125 C 8.203125 -34.578125 9.410156 -34.179688 10.328125 -33.390625 C 11.242188 -32.597656 11.703125 -31.585938 11.703125 -30.359375 C 11.703125 -29.066406 11.242188 -28 10.328125 -27.15625 C 9.410156 -26.3125 8.203125 -25.890625 6.703125 -25.890625 Z M 6.703125 -25.890625 "/></g></g></g><g fill="#ffffff" fill-opacity="1"><g transform="translate(81.96887, 42.035096)"><g><path d="M 18.703125 -0.953125 C 18.015625 -0.515625 17.175781 -0.179688 16.1875 0.046875 C 15.195312 0.273438 14.144531 0.390625 13.03125 0.390625 C 9.988281 0.390625 7.648438 -0.351562 6.015625 -1.84375 C 4.378906 -3.332031 3.5625 -5.554688 3.5625 -8.515625 L 3.5625 -16.34375 L 0.171875 -16.34375 L 0.171875 -22.453125 L 3.5625 -22.453125 L 3.5625 -28.515625 L 11.734375 -28.515625 L 11.734375 -22.453125 L 17.078125 -22.453125 L 17.078125 -16.34375 L 11.734375 -16.34375 L 11.734375 -8.59375 C 11.734375 -7.769531 11.957031 -7.117188 12.40625 -6.640625 C 12.851562 -6.171875 13.445312 -5.9375 14.1875 -5.9375 C 15.132812 -5.9375 15.96875 -6.179688 16.6875 -6.671875 Z M 18.703125 -0.953125 "/></g></g></g><g fill="#ffffff" fill-opacity="1"><g transform="translate(97.665419, 42.035096)"><g><path d="M 17.796875 -23.6875 C 20.691406 -23.6875 23.019531 -22.828125 24.78125 -21.109375 C 26.550781 -19.390625 27.4375 -16.796875 27.4375 -13.328125 L 27.4375 0 L 19.265625 0 L 19.265625 -12 C 19.265625 -15.175781 17.988281 -16.765625 15.4375 -16.765625 C 14.03125 -16.765625 12.90625 -16.304688 12.0625 -15.390625 C 11.21875 -14.472656 10.796875 -13.097656 10.796875 -11.265625 L 10.796875 0 L 2.625 0 L 2.625 -31.90625 L 10.796875 -31.90625 L 10.796875 -21.15625 C 11.679688 -21.988281 12.722656 -22.617188 13.921875 -23.046875 C 15.128906 -23.472656 16.421875 -23.6875 17.796875 -23.6875 Z M 17.796875 -23.6875 "/></g></g></g><g clip-path="url(#2bee66818b)"><g fill="#c2f12d" fill-opacity="1"><g transform="translate(124.070745, 42.035096)"><g><path d="M 6.0625 0.390625 C 4.6875 0.390625 3.523438 -0.0664062 2.578125 -0.984375 C 1.628906 -1.898438 1.15625 -3.0625 1.15625 -4.46875 C 1.15625 -5.90625 1.617188 -7.066406 2.546875 -7.953125 C 3.484375 -8.835938 4.65625 -9.28125 6.0625 -9.28125 C 7.5 -9.28125 8.675781 -8.835938 9.59375 -7.953125 C 10.507812 -7.066406 10.96875 -5.90625 10.96875 -4.46875 C 10.96875 -3.0625 10.5 -1.898438 9.5625 -0.984375 C 8.632812 -0.0664062 7.46875 0.390625 6.0625 0.390625 Z M 6.0625 0.390625 "/></g></g></g></g></g></g><g mask="url(#4fa60df9dd)"><g transform="matrix(1, 0, 0, 1, 7, 15)"><g clip-path="url(#339870e21d)"><g clip-path="url(#41ea676db9)"><path fill="#c2f12d" d="M 44.910156 1.101562 C 47.433594 1.101562 49.925781 2.550781 51.113281 4.707031 C 52.195312 6.675781 52.082031 8.960938 50.796875 10.984375 L 32.046875 40.570312 C 30.789062 42.550781 28.671875 43.734375 26.386719 43.734375 C 24.097656 43.734375 21.96875 42.558594 20.691406 40.585938 L 1.546875 11 C 0.246094 8.988281 0.113281 6.710938 1.183594 4.742188 C 2.363281 2.578125 4.863281 1.121094 7.40625 1.121094 C 9.636719 1.121094 11.636719 2.234375 12.890625 4.175781 L 26.304688 24.902344 L 39.4375 4.1875 C 40.679688 2.226562 42.675781 1.101562 44.910156 1.101562 Z M 26.386719 40.015625 C 27.40625 40.015625 28.324219 39.488281 28.902344 38.578125 L 47.65625 8.992188 C 48.210938 8.113281 48.277344 7.273438 47.851562 6.5 C 47.316406 5.527344 46.082031 4.820312 44.910156 4.820312 C 43.9375 4.820312 43.152344 5.28125 42.578125 6.179688 L 26.339844 31.800781 L 9.765625 6.195312 C 9.1875 5.296875 8.390625 4.84375 7.40625 4.84375 C 6.226562 4.84375 4.984375 5.546875 4.453125 6.523438 C 4.039062 7.285156 4.113281 8.113281 4.671875 8.980469 L 23.816406 38.5625 C 24.414062 39.484375 25.351562 40.015625 26.386719 40.015625 Z M 26.386719 40.015625 " fill-opacity="1" fill-rule="nonzero"/></g></g></g></g><g clip-path="url(#7d39738b3e)"><path fill="#c2f12d" d="M 33.535156 58.886719 C 31.011719 58.886719 28.519531 57.4375 27.332031 55.28125 C 26.25 53.3125 26.363281 51.027344 27.648438 49.003906 L 46.402344 19.417969 C 47.65625 17.4375 49.773438 16.253906 52.058594 16.253906 C 54.347656 16.253906 56.476562 17.429688 57.753906 19.40625 L 76.898438 48.988281 C 78.199219 51 78.332031 53.277344 77.261719 55.246094 C 76.082031 57.414062 73.582031 58.867188 71.039062 58.867188 C 68.808594 58.867188 66.8125 57.753906 65.554688 55.8125 L 52.140625 35.085938 L 39.011719 55.800781 C 37.765625 57.761719 35.769531 58.886719 33.535156 58.886719 Z M 52.058594 19.972656 C 51.039062 19.972656 50.121094 20.5 49.542969 21.414062 L 30.792969 50.996094 C 30.234375 51.875 30.167969 52.714844 30.59375 53.488281 C 31.128906 54.460938 32.363281 55.167969 33.535156 55.167969 C 34.511719 55.167969 35.292969 54.707031 35.867188 53.808594 L 52.105469 28.1875 L 68.679688 53.792969 C 69.261719 54.691406 70.054688 55.144531 71.039062 55.144531 C 72.222656 55.144531 73.464844 54.441406 73.992188 53.464844 C 74.410156 52.703125 74.335938 51.875 73.773438 51.011719 L 54.628906 21.425781 C 54.03125 20.503906 53.09375 19.972656 52.058594 19.972656 Z M 52.058594 19.972656 " fill-opacity="1" fill-rule="nonzero"/></g><g transform="matrix(1, 0, 0, 1, 91, 55)"><g clip-path="url(#1fa1e4be56)"><g clip-path="url(#b258bfb618)"><g fill="#ffffff" fill-opacity="1"><g transform="translate(0.658545, 6.88961)"><g><path d="M 1.4375 -3.59375 L 0.03125 -3.59375 L 0.03125 -4.421875 L 3.890625 -4.421875 L 3.890625 -3.59375 L 2.46875 -3.59375 L 2.46875 0 L 1.4375 0 Z M 1.4375 -3.59375 "/></g></g></g></g><g fill="#ffffff" fill-opacity="1"><g transform="translate(9.640701, 6.88961)"><g><path d="M 3.953125 -0.828125 L 3.953125 0 L 0.53125 0 L 0.53125 -4.421875 L 3.875 -4.421875 L 3.875 -3.609375 L 1.546875 -3.609375 L 1.546875 -2.640625 L 3.59375 -2.640625 L 3.59375 -1.84375 L 1.546875 -1.84375 L 1.546875 -0.828125 Z M 3.953125 -0.828125 "/></g></g></g><g fill="#ffffff" fill-opacity="1"><g transform="translate(18.958454, 6.88961)"><g><path d="M 2.640625 0.078125 C 2.191406 0.078125 1.785156 -0.0195312 1.421875 -0.21875 C 1.054688 -0.414062 0.769531 -0.6875 0.5625 -1.03125 C 0.351562 -1.382812 0.25 -1.78125 0.25 -2.21875 C 0.25 -2.65625 0.351562 -3.046875 0.5625 -3.390625 C 0.769531 -3.742188 1.054688 -4.015625 1.421875 -4.203125 C 1.785156 -4.398438 2.195312 -4.5 2.65625 -4.5 C 3.039062 -4.5 3.382812 -4.429688 3.6875 -4.296875 C 4 -4.160156 4.257812 -3.96875 4.46875 -3.71875 L 3.8125 -3.109375 C 3.507812 -3.453125 3.140625 -3.625 2.703125 -3.625 C 2.429688 -3.625 2.1875 -3.5625 1.96875 -3.4375 C 1.75 -3.320312 1.578125 -3.15625 1.453125 -2.9375 C 1.335938 -2.726562 1.28125 -2.488281 1.28125 -2.21875 C 1.28125 -1.9375 1.335938 -1.6875 1.453125 -1.46875 C 1.578125 -1.257812 1.75 -1.09375 1.96875 -0.96875 C 2.1875 -0.851562 2.429688 -0.796875 2.703125 -0.796875 C 3.140625 -0.796875 3.507812 -0.972656 3.8125 -1.328125 L 4.46875 -0.71875 C 4.257812 -0.457031 4 -0.257812 3.6875 -0.125 C 3.375 0.0078125 3.023438 0.078125 2.640625 0.078125 Z M 2.640625 0.078125 "/></g></g></g><g fill="#ffffff" fill-opacity="1"><g transform="translate(28.668789, 6.88961)"><g><path d="M 4.59375 -4.421875 L 4.59375 0 L 3.5625 0 L 3.5625 -1.8125 L 1.546875 -1.8125 L 1.546875 0 L 0.53125 0 L 0.53125 -4.421875 L 1.546875 -4.421875 L 1.546875 -2.6875 L 3.5625 -2.6875 L 3.5625 -4.421875 Z M 4.59375 -4.421875 "/></g></g></g><g fill="#ffffff" fill-opacity="1"><g transform="translate(38.854019, 6.88961)"><g><path d="M 4.59375 -4.421875 L 4.59375 0 L 3.75 0 L 1.53125 -2.6875 L 1.53125 0 L 0.53125 0 L 0.53125 -4.421875 L 1.375 -4.421875 L 3.578125 -1.734375 L 3.578125 -4.421875 Z M 4.59375 -4.421875 "/></g></g></g><g fill="#ffffff" fill-opacity="1"><g transform="translate(49.039249, 6.88961)"><g><path d="M 2.671875 0.078125 C 2.210938 0.078125 1.796875 -0.0195312 1.421875 -0.21875 C 1.054688 -0.414062 0.769531 -0.6875 0.5625 -1.03125 C 0.351562 -1.382812 0.25 -1.78125 0.25 -2.21875 C 0.25 -2.644531 0.351562 -3.03125 0.5625 -3.375 C 0.769531 -3.726562 1.054688 -4.003906 1.421875 -4.203125 C 1.796875 -4.398438 2.210938 -4.5 2.671875 -4.5 C 3.128906 -4.5 3.539062 -4.398438 3.90625 -4.203125 C 4.28125 -4.003906 4.570312 -3.726562 4.78125 -3.375 C 4.988281 -3.03125 5.09375 -2.644531 5.09375 -2.21875 C 5.09375 -1.78125 4.988281 -1.382812 4.78125 -1.03125 C 4.570312 -0.6875 4.28125 -0.414062 3.90625 -0.21875 C 3.539062 -0.0195312 3.128906 0.078125 2.671875 0.078125 Z M 2.671875 -0.796875 C 2.929688 -0.796875 3.164062 -0.851562 3.375 -0.96875 C 3.59375 -1.09375 3.757812 -1.257812 3.875 -1.46875 C 4 -1.6875 4.0625 -1.9375 4.0625 -2.21875 C 4.0625 -2.488281 4 -2.726562 3.875 -2.9375 C 3.757812 -3.15625 3.59375 -3.320312 3.375 -3.4375 C 3.164062 -3.5625 2.929688 -3.625 2.671875 -3.625 C 2.410156 -3.625 2.171875 -3.5625 1.953125 -3.4375 C 1.742188 -3.320312 1.578125 -3.15625 1.453125 -2.9375 C 1.335938 -2.726562 1.28125 -2.488281 1.28125 -2.21875 C 1.28125 -1.9375 1.335938 -1.6875 1.453125 -1.46875 C 1.578125 -1.257812 1.742188 -1.09375 1.953125 -0.96875 C 2.171875 -0.851562 2.410156 -0.796875 2.671875 -0.796875 Z M 2.671875 -0.796875 "/></g></g></g><g fill="#ffffff" fill-opacity="1"><g transform="translate(59.452433, 6.88961)"><g><path d="M 0.53125 -4.421875 L 1.546875 -4.421875 L 1.546875 -0.828125 L 3.765625 -0.828125 L 3.765625 0 L 0.53125 0 Z M 0.53125 -4.421875 "/></g></g></g><g fill="#ffffff" fill-opacity="1"><g transform="translate(68.345947, 6.88961)"><g><path d="M 2.671875 0.078125 C 2.210938 0.078125 1.796875 -0.0195312 1.421875 -0.21875 C 1.054688 -0.414062 0.769531 -0.6875 0.5625 -1.03125 C 0.351562 -1.382812 0.25 -1.78125 0.25 -2.21875 C 0.25 -2.644531 0.351562 -3.03125 0.5625 -3.375 C 0.769531 -3.726562 1.054688 -4.003906 1.421875 -4.203125 C 1.796875 -4.398438 2.210938 -4.5 2.671875 -4.5 C 3.128906 -4.5 3.539062 -4.398438 3.90625 -4.203125 C 4.28125 -4.003906 4.570312 -3.726562 4.78125 -3.375 C 4.988281 -3.03125 5.09375 -2.644531 5.09375 -2.21875 C 5.09375 -1.78125 4.988281 -1.382812 4.78125 -1.03125 C 4.570312 -0.6875 4.28125 -0.414062 3.90625 -0.21875 C 3.539062 -0.0195312 3.128906 0.078125 2.671875 0.078125 Z M 2.671875 -0.796875 C 2.929688 -0.796875 3.164062 -0.851562 3.375 -0.96875 C 3.59375 -1.09375 3.757812 -1.257812 3.875 -1.46875 C 4 -1.6875 4.0625 -1.9375 4.0625 -2.21875 C 4.0625 -2.488281 4 -2.726562 3.875 -2.9375 C 3.757812 -3.15625 3.59375 -3.320312 3.375 -3.4375 C 3.164062 -3.5625 2.929688 -3.625 2.671875 -3.625 C 2.410156 -3.625 2.171875 -3.5625 1.953125 -3.4375 C 1.742188 -3.320312 1.578125 -3.15625 1.453125 -2.9375 C 1.335938 -2.726562 1.28125 -2.488281 1.28125 -2.21875 C 1.28125 -1.9375 1.335938 -1.6875 1.453125 -1.46875 C 1.578125 -1.257812 1.742188 -1.09375 1.953125 -0.96875 C 2.171875 -0.851562 2.410156 -0.796875 2.671875 -0.796875 Z M 2.671875 -0.796875 "/></g></g></g><g fill="#ffffff" fill-opacity="1"><g transform="translate(78.759127, 6.88961)"><g><path d="M 3.515625 -2.28125 L 4.453125 -2.28125 L 4.453125 -0.484375 C 4.210938 -0.304688 3.929688 -0.164062 3.609375 -0.0625 C 3.296875 0.03125 2.984375 0.078125 2.671875 0.078125 C 2.203125 0.078125 1.785156 -0.0195312 1.421875 -0.21875 C 1.054688 -0.414062 0.769531 -0.6875 0.5625 -1.03125 C 0.351562 -1.382812 0.25 -1.78125 0.25 -2.21875 C 0.25 -2.65625 0.351562 -3.046875 0.5625 -3.390625 C 0.769531 -3.742188 1.054688 -4.015625 1.421875 -4.203125 C 1.796875 -4.398438 2.21875 -4.5 2.6875 -4.5 C 3.070312 -4.5 3.421875 -4.429688 3.734375 -4.296875 C 4.054688 -4.171875 4.320312 -3.984375 4.53125 -3.734375 L 3.875 -3.125 C 3.5625 -3.457031 3.179688 -3.625 2.734375 -3.625 C 2.453125 -3.625 2.203125 -3.566406 1.984375 -3.453125 C 1.765625 -3.335938 1.59375 -3.171875 1.46875 -2.953125 C 1.34375 -2.734375 1.28125 -2.488281 1.28125 -2.21875 C 1.28125 -1.9375 1.34375 -1.6875 1.46875 -1.46875 C 1.59375 -1.257812 1.757812 -1.09375 1.96875 -0.96875 C 2.1875 -0.851562 2.4375 -0.796875 2.71875 -0.796875 C 3.007812 -0.796875 3.273438 -0.859375 3.515625 -0.984375 Z M 3.515625 -2.28125 "/></g></g></g><g fill="#ffffff" fill-opacity="1"><g transform="translate(88.710072, 6.88961)"><g><path d="M 0.53125 -4.421875 L 1.546875 -4.421875 L 1.546875 0 L 0.53125 0 Z M 0.53125 -4.421875 "/></g></g></g><g fill="#ffffff" fill-opacity="1"><g transform="translate(95.85596, 6.88961)"><g><path d="M 3.953125 -0.828125 L 3.953125 0 L 0.53125 0 L 0.53125 -4.421875 L 3.875 -4.421875 L 3.875 -3.609375 L 1.546875 -3.609375 L 1.546875 -2.640625 L 3.59375 -2.640625 L 3.59375 -1.84375 L 1.546875 -1.84375 L 1.546875 -0.828125 Z M 3.953125 -0.828125 "/></g></g></g><g fill="#ffffff" fill-opacity="1"><g transform="translate(105.17371, 6.88961)"><g><path d="M 1.984375 0.078125 C 1.628906 0.078125 1.285156 0.03125 0.953125 -0.0625 C 0.628906 -0.15625 0.367188 -0.28125 0.171875 -0.4375 L 0.53125 -1.203125 C 0.71875 -1.066406 0.941406 -0.957031 1.203125 -0.875 C 1.460938 -0.789062 1.722656 -0.75 1.984375 -0.75 C 2.273438 -0.75 2.488281 -0.789062 2.625 -0.875 C 2.769531 -0.957031 2.84375 -1.070312 2.84375 -1.21875 C 2.84375 -1.320312 2.800781 -1.410156 2.71875 -1.484375 C 2.632812 -1.554688 2.523438 -1.613281 2.390625 -1.65625 C 2.265625 -1.695312 2.09375 -1.742188 1.875 -1.796875 C 1.539062 -1.867188 1.265625 -1.945312 1.046875 -2.03125 C 0.835938 -2.113281 0.65625 -2.242188 0.5 -2.421875 C 0.34375 -2.597656 0.265625 -2.832031 0.265625 -3.125 C 0.265625 -3.382812 0.332031 -3.617188 0.46875 -3.828125 C 0.613281 -4.035156 0.828125 -4.195312 1.109375 -4.3125 C 1.390625 -4.4375 1.726562 -4.5 2.125 -4.5 C 2.414062 -4.5 2.691406 -4.460938 2.953125 -4.390625 C 3.222656 -4.328125 3.460938 -4.234375 3.671875 -4.109375 L 3.359375 -3.328125 C 2.941406 -3.566406 2.53125 -3.6875 2.125 -3.6875 C 1.84375 -3.6875 1.628906 -3.640625 1.484375 -3.546875 C 1.347656 -3.453125 1.28125 -3.328125 1.28125 -3.171875 C 1.28125 -3.023438 1.359375 -2.914062 1.515625 -2.84375 C 1.679688 -2.769531 1.925781 -2.695312 2.25 -2.625 C 2.582031 -2.539062 2.851562 -2.457031 3.0625 -2.375 C 3.28125 -2.300781 3.46875 -2.175781 3.625 -2 C 3.78125 -1.820312 3.859375 -1.585938 3.859375 -1.296875 C 3.859375 -1.046875 3.785156 -0.816406 3.640625 -0.609375 C 3.503906 -0.398438 3.296875 -0.234375 3.015625 -0.109375 C 2.734375 0.015625 2.390625 0.078125 1.984375 0.078125 Z M 1.984375 0.078125 "/></g></g></g></g></g></svg>